<svg width="111" height="37" viewBox="0 0 111 37" fill="none" xmlns="http://www.w3.org/2000/svg">
<path d="M14.7282 6.07666L17.9466 8.5081L15.9805 11.0097C17.3379 12.5456 17.8382 14.2983 17.8382 16.2294C17.8382 18.4091 17.0161 21.4843 14.1195 22.8068C17.0512 24.2726 17.7649 26.3822 17.7649 28.6352C17.7649 33.4981 14.0463 36.5 8.93505 36.5C3.82384 36.5 0 33.3898 0 28.6352H4.32413C4.32413 30.9233 6.43362 32.4242 8.93505 32.4242C11.4365 32.4242 13.4026 31.0667 13.4026 28.6352C13.4026 26.2038 11.1146 25.0948 8.93505 25.0948C3.4319 25.0948 0 21.736 0 16.2294C0 10.7228 4.00229 7.29079 8.93823 7.29079C10.3339 7.29079 11.7615 7.46924 12.9788 8.29141L14.7282 6.07666ZM4.32413 16.2294C4.32413 19.3046 6.39857 21.1274 8.93505 21.1274C11.4365 21.1274 13.5109 19.2695 13.5109 16.2294C13.5109 13.1893 11.4397 11.2614 8.93823 11.2614C6.39856 11.2614 4.32413 13.1543 4.32413 16.2294Z" fill="white"/>
<path d="M50.5671 0.5V25.49H46.2429V0.5H50.5671Z" fill="white"/>
<path d="M69.9987 16.6948C69.9987 21.7712 66.5317 25.882 60.8119 25.882C55.0921 25.882 51.6602 21.7712 51.6602 16.6948C51.6602 11.6534 55.1622 7.50757 60.7768 7.50757C66.3915 7.50757 69.9987 11.6534 69.9987 16.6948ZM56.0193 16.6948C56.0193 19.3748 57.6285 21.8795 60.8087 21.8795C63.9889 21.8795 65.5981 19.378 65.5981 16.6948C65.5981 14.0498 63.7403 11.475 60.8087 11.475C57.6636 11.475 56.0193 14.0498 56.0193 16.6948Z" fill="white"/>
<path d="M75.4507 0.5V10.2608C76.4864 8.43804 79.3829 7.43742 81.2407 7.43742C86.3869 7.43742 90.214 10.5827 90.214 16.6597C90.214 22.4499 86.3168 25.882 81.1355 25.882C78.991 25.882 76.8114 25.1681 75.4507 23.0586L75.164 25.49H71.0884V0.5H75.4507ZM75.7343 16.6597C75.7343 19.84 78.0924 21.8444 80.8456 21.8444C83.6338 21.8444 85.8516 19.7348 85.8516 16.6597C85.8516 13.4794 83.6338 11.5132 80.8456 11.5132C78.0956 11.51 75.7343 13.5845 75.7343 16.6597Z" fill="white"/>
<path d="M96.6987 19.7317C97.712 21.682 100.032 22.5137 102.922 21.4621C104.432 20.9108 106.207 19.6202 106.794 18.3041L110.356 19.9357C109.27 22.3863 106.733 24.2983 104.213 25.216C98.5023 27.2938 93.8244 25.0025 91.8934 19.6935C90.058 14.6554 92.1643 9.77973 97.5399 7.8231C103.081 5.80593 107.791 7.97288 109.633 15.025L96.6987 19.7317ZM104.467 13.062C103.416 11.0098 101.345 10.5477 98.993 11.4017C96.7752 12.208 95.354 13.9447 95.5324 16.3124L104.467 13.062Z" fill="white"/>
<path fill-rule="evenodd" clip-rule="evenodd" d="M39.7626 12.4898C38.3489 9.54029 35.4017 7.50757 31.4702 7.50757C25.8555 7.50757 22.3535 11.6534 22.3535 16.6948C22.3535 19.9133 23.733 22.7436 26.2006 24.3843C26.3412 24.2791 26.4258 24.2108 26.4258 24.2108C27.6566 23.4077 28.8573 22.5624 30.0258 21.6765C27.8244 21.0287 26.7127 18.9223 26.7127 16.6948C26.7127 14.0498 28.3601 11.475 31.5021 11.475C34.269 11.475 36.0793 13.7687 36.274 16.2501C37.4868 15.0464 38.6507 13.7921 39.7626 12.4898ZM31.0601 25.8736C34.5418 23.4057 37.7611 20.5867 40.6652 17.4631C40.3328 22.1796 36.9335 25.882 31.5052 25.882C31.3553 25.882 31.2069 25.8792 31.0601 25.8736Z" fill="#8DD3BB"/>
<path d="M43.3177 5.03791C38.8629 3.39995 35.6604 6.92443 35.6604 6.92443L38.6972 8.68985C39.8348 8.03658 40.3414 8.67073 40.4721 9.01808C40.5645 9.26346 40.4402 9.53114 40.3414 9.67772L39.6022 10.6114C35.6126 15.4233 30.922 19.6043 25.6866 23.0204C25.6866 23.0204 24.106 24.2951 23.2648 24.3142C22.5574 24.3301 22.2419 23.7342 22.8378 22.8802L21.372 19.5724C21.372 19.5724 17.5577 22.0707 18.297 26.462C18.6093 28.3167 20.3523 29.6359 22.2037 29.3013C23.1501 29.1324 24.3195 28.6704 25.7503 27.7239L28.3824 26.0031C33.6179 22.5806 38.3116 18.3869 42.298 13.5687L43.203 12.4756C44.5668 10.9237 45.1786 9.64586 45.3857 8.63568C45.7044 7.09014 44.7899 5.57965 43.3177 5.03791Z" fill="#8DD3BB"/>
</svg>
