<svg width="16" height="18" viewBox="0 0 16 18" fill="none" xmlns="http://www.w3.org/2000/svg">
<path d="M11.1869 12.9149L11.2028 12.9238L11.2154 12.9107C11.4459 12.6696 11.7229 12.4778 12.0296 12.3467C12.3364 12.2157 12.6665 12.1482 13 12.1484C13.5172 12.1483 14.0215 12.3102 14.4421 12.6114C14.8626 12.9125 15.1783 13.3378 15.3449 13.8274C15.5114 14.3171 15.5205 14.8467 15.3707 15.3418C15.221 15.8369 14.9201 16.2727 14.5101 16.588C14.1001 16.9034 13.6016 17.0824 13.0847 17.1C12.5677 17.1177 12.0582 16.973 11.6277 16.6864C11.1972 16.3997 10.8672 15.9855 10.684 15.5017C10.5009 15.018 10.4739 14.489 10.6066 13.9891L10.6113 13.9716L10.5955 13.9627L4.81423 10.71L4.7984 10.7011L4.78582 10.7142C4.44373 11.0709 4.00274 11.317 3.51958 11.421C3.03642 11.525 2.5332 11.4821 2.07465 11.2977C1.61609 11.1134 1.22319 10.7961 0.946468 10.3866C0.669751 9.97707 0.521881 9.49415 0.521881 8.99992C0.521881 8.5057 0.669751 8.02278 0.946468 7.61329C1.22319 7.2038 1.61609 6.88646 2.07465 6.70211C2.5332 6.51776 3.03642 6.47481 3.51958 6.57881C4.00274 6.68281 4.44373 6.92899 4.78582 7.28568L4.7984 7.29879L4.81423 7.28988L10.5955 4.03715L10.6113 4.02824L10.6066 4.01069C10.452 3.43023 10.5143 2.81331 10.7819 2.2755C11.0495 1.73769 11.504 1.3159 12.0603 1.08914C12.6165 0.862388 13.2364 0.846225 13.8037 1.04368C14.371 1.24114 14.8469 1.63867 15.1422 2.1618C15.4374 2.68493 15.5318 3.29776 15.4076 3.88549C15.2835 4.47322 14.9493 4.99552 14.4677 5.35455C13.9861 5.71357 13.3901 5.88467 12.7914 5.83581C12.1927 5.78695 11.6323 5.52148 11.2153 5.08912L11.2027 5.07608L11.1869 5.08497L5.4057 8.3377L5.38987 8.34661L5.39454 8.36416C5.50548 8.78074 5.50548 9.2191 5.39454 9.63569L5.38987 9.65324L5.4057 9.66215L11.1869 12.9149Z" fill="black" stroke="#112211" stroke-width="0.046875"/>
</svg>
